<svg id="Layer_1" data-name="Layer 1" xmlns="http://www.w3.org/2000/svg" viewBox="0 0 761.65 495.95"><defs><style>.cls-1{fill:#205886;}.cls-2{fill:#388ccc;}.cls-3{fill:#2a7ec0;}.cls-4{fill:none;stroke:#388ccc;stroke-miterlimit:10;stroke-width:4px;stroke-dasharray:5;}</style></defs><title>contactus</title><path class="cls-1" d="M1112,451.13l32.15,99.79a10.57,10.57,0,0,0,16.76,4.93L1258.56,476s-103.21-40.77-103.22-38.57S1112,451.13,1112,451.13Z" transform="translate(-622.24 -259.13)"/><path class="cls-2" d="M1368.51,259.94C1305,285.07,1099.9,369.1,1022.27,401a11.85,11.85,0,0,0,.92,22.26l88.63,28.24,32.47,99.32a10.77,10.77,0,0,0,8.29,7.27c3,.56,7.39-80.44,7.39-80.44s93.16,69.09,137.36,101.72a18.4,18.4,0,0,0,29-11.29c13.17-67.85,46.08-237.49,57.33-295.49A11.23,11.23,0,0,0,1368.51,259.94Z" transform="translate(-622.24 -259.13)"/><path class="cls-3" d="M1152.58,558c3,.56,7.39-80.44,7.39-80.44L1313,333.83a1.18,1.18,0,0,0-1.42-1.88l-199.79,119.5,32.47,99.32A10.77,10.77,0,0,0,1152.58,558Z" transform="translate(-622.24 -259.13)"/><path class="cls-4" d="M622.25,753.08c105.12-.32,244.87-59.6,272.92-173.43C906.49,533.71,896.43,484.49,860,451c-46-42.37-96.53-3.66-84.1,55.48C796.34,603.59,915,675.53,1005.16,676.54c52.12.59,101-24.4,119.76-75.47" transform="translate(-622.24 -259.13)"/></svg>