<svg xmlns="http://www.w3.org/2000/svg" xmlns:xlink="http://www.w3.org/1999/xlink" viewBox="0 0 2805.13 2800"><defs><style>.cls-1{fill:none;}.cls-2{fill:url(#linear-gradient);}.cls-3{fill:#36a9e1;}.cls-4{fill:#7d97f4;}.cls-5{fill:#258acb;}.cls-56,.cls-57,.cls-6{fill:#fff;}.cls-7{clip-path:url(#clip-path);}.cls-8{fill:url(#linear-gradient-2);}.cls-9{fill:url(#linear-gradient-3);}.cls-10{fill:url(#linear-gradient-4);}.cls-11{fill:url(#linear-gradient-5);}.cls-12{fill:url(#linear-gradient-6);}.cls-13{clip-path:url(#clip-path-2);}.cls-14{fill:url(#linear-gradient-7);}.cls-15{fill:url(#linear-gradient-8);}.cls-16{fill:url(#linear-gradient-9);}.cls-17{fill:url(#linear-gradient-10);}.cls-18{fill:url(#linear-gradient-11);}.cls-19{fill:url(#linear-gradient-12);}.cls-20{fill:url(#linear-gradient-13);}.cls-21{fill:url(#linear-gradient-14);}.cls-22{fill:url(#linear-gradient-15);}.cls-23{fill:url(#linear-gradient-16);}.cls-24{fill:url(#linear-gradient-17);}.cls-25{fill:url(#linear-gradient-18);}.cls-26{fill:url(#linear-gradient-19);}.cls-27{fill:url(#linear-gradient-20);}.cls-28{clip-path:url(#clip-path-3);}.cls-29{fill:url(#linear-gradient-21);}.cls-30{fill:url(#linear-gradient-22);}.cls-31{fill:url(#linear-gradient-23);}.cls-32{fill:url(#linear-gradient-24);}.cls-33{fill:url(#linear-gradient-25);}.cls-34{fill:url(#linear-gradient-26);}.cls-35{fill:url(#linear-gradient-27);}.cls-36{fill:url(#linear-gradient-28);}.cls-37{fill:url(#linear-gradient-29);}.cls-38{fill:url(#linear-gradient-30);}.cls-39{fill:url(#linear-gradient-31);}.cls-40{fill:url(#linear-gradient-32);}.cls-41{clip-path:url(#clip-path-4);}.cls-42{fill:url(#linear-gradient-33);}.cls-43{fill:url(#linear-gradient-34);}.cls-44{fill:url(#linear-gradient-35);}.cls-45{fill:url(#linear-gradient-36);}.cls-46{fill:url(#linear-gradient-37);}.cls-47{fill:url(#linear-gradient-38);}.cls-48{fill:url(#linear-gradient-39);}.cls-49{fill:url(#linear-gradient-40);}.cls-50{fill:url(#linear-gradient-41);}.cls-51{fill:url(#linear-gradient-42);}.cls-52{fill:url(#linear-gradient-43);}.cls-53{fill:url(#linear-gradient-44);}.cls-54{fill:url(#linear-gradient-45);}.cls-55{fill:url(#linear-gradient-46);}.cls-56{opacity:0.7;}.cls-57{opacity:0.78;}.cls-58{fill:url(#linear-gradient-47);}.cls-59{fill:url(#linear-gradient-48);}.cls-60{fill:url(#linear-gradient-49);}.cls-61{fill:url(#linear-gradient-50);}.cls-62{fill:url(#linear-gradient-51);}.cls-63{fill:url(#linear-gradient-52);}.cls-64{fill:url(#linear-gradient-53);}.cls-65{fill:url(#linear-gradient-54);}.cls-66{fill:url(#linear-gradient-55);}.cls-67{fill:url(#linear-gradient-56);}.cls-68{fill:url(#linear-gradient-57);}.cls-69{fill:url(#linear-gradient-58);}.cls-70{fill:url(#linear-gradient-59);}.cls-71{fill:url(#linear-gradient-60);}.cls-72{fill:url(#linear-gradient-61);}.cls-73{fill:url(#linear-gradient-62);}.cls-74{fill:url(#linear-gradient-63);}.cls-75{fill:url(#linear-gradient-64);}.cls-76{fill:url(#linear-gradient-65);}.cls-77{fill:url(#linear-gradient-66);}.cls-78{fill:url(#linear-gradient-67);}.cls-79{fill:url(#linear-gradient-68);}.cls-80{fill:url(#linear-gradient-69);}.cls-81{fill:url(#linear-gradient-70);}.cls-82{fill:url(#linear-gradient-71);}.cls-83{fill:url(#linear-gradient-72);}.cls-84{fill:#91b3fa;}.cls-85{fill:url(#linear-gradient-73);}</style><linearGradient id="linear-gradient" x1="3513.92" y1="3709.58" x2="1536.04" y2="1604.1" gradientUnits="userSpaceOnUse"><stop offset="0" stop-color="#dae3fe"/><stop offset="1" stop-color="#e9effd"/></linearGradient><clipPath id="clip-path" transform="translate(-452.44 -455)"><circle class="cls-1" cx="2327.63" cy="940.32" r="199.87" transform="translate(16.84 1921.3) rotate(-45)"/></clipPath><linearGradient id="linear-gradient-2" x1="2322.96" y1="871.06" x2="2335.24" y2="1060.96" gradientUnits="userSpaceOnUse"><stop offset="0" stop-color="#c4421b"/><stop offset="1" stop-color="#5c0e16"/></linearGradient><linearGradient id="linear-gradient-3" x1="2323.94" y1="970.27" x2="2339.73" y2="770.46" xlink:href="#linear-gradient-2"/><linearGradient id="linear-gradient-4" x1="2379.83" y1="974.69" x2="2395.62" y2="774.88" xlink:href="#linear-gradient-2"/><linearGradient id="linear-gradient-5" x1="2266.76" y1="965.75" x2="2282.56" y2="765.94" xlink:href="#linear-gradient-2"/><linearGradient id="linear-gradient-6" x1="2325.17" y1="778.42" x2="2350.82" y2="976.82" gradientUnits="userSpaceOnUse"><stop offset="0" stop-color="#090056"/><stop offset="1" stop-color="#020039"/></linearGradient><clipPath id="clip-path-2" transform="translate(-452.44 -455)"><circle class="cls-1" cx="2763.38" cy="829.13" r="183.15"/></clipPath><linearGradient id="linear-gradient-7" x1="2769.23" y1="671.07" x2="2749.22" y2="994.38" gradientUnits="userSpaceOnUse"><stop offset="0" stop-color="#09005d"/><stop offset="1" stop-color="#1a0f91"/></linearGradient><linearGradient id="linear-gradient-8" x1="2699.2" y1="666.73" x2="2679.19" y2="990.04" xlink:href="#linear-gradient-7"/><linearGradient id="linear-gradient-9" x1="2849.88" y1="676.06" x2="2829.87" y2="999.37" xlink:href="#linear-gradient-7"/><linearGradient id="linear-gradient-10" x1="2710.77" y1="534.03" x2="2731.04" y2="666.91" gradientUnits="userSpaceOnUse"><stop offset="0" stop-color="#ff928e"/><stop offset="1" stop-color="#fe7062"/></linearGradient><linearGradient id="linear-gradient-11" x1="2717.33" y1="787.85" x2="2769.98" y2="619.74" gradientUnits="userSpaceOnUse"><stop offset="0" stop-color="#febbba"/><stop offset="1" stop-color="#ff928e"/></linearGradient><linearGradient id="linear-gradient-12" x1="2795.08" y1="812.2" x2="2847.73" y2="644.09" xlink:href="#linear-gradient-11"/><linearGradient id="linear-gradient-13" x1="2804.9" y1="519.67" x2="2825.17" y2="652.55" xlink:href="#linear-gradient-10"/><linearGradient id="linear-gradient-14" x1="2604.25" y1="550.28" x2="2624.52" y2="683.16" xlink:href="#linear-gradient-10"/><linearGradient id="linear-gradient-15" x1="2759.78" y1="962.19" x2="2784.06" y2="799.74" xlink:href="#linear-gradient-11"/><linearGradient id="linear-gradient-16" x1="2748.03" y1="997.31" x2="2759.74" y2="918.95" xlink:href="#linear-gradient-7"/><linearGradient id="linear-gradient-17" x1="2644.17" y1="544.19" x2="2664.44" y2="677.07" xlink:href="#linear-gradient-10"/><linearGradient id="linear-gradient-18" x1="2762.36" y1="526.16" x2="2782.63" y2="659.04" xlink:href="#linear-gradient-10"/><linearGradient id="linear-gradient-19" x1="2752.96" y1="799.01" x2="2805.61" y2="630.89" xlink:href="#linear-gradient-11"/><linearGradient id="linear-gradient-20" x1="2699.16" y1="662.94" x2="2912.27" y2="1002.62" xlink:href="#linear-gradient-7"/><clipPath id="clip-path-3" transform="translate(-452.44 -455)"><circle class="cls-1" cx="2418.65" cy="1429.89" r="206.95"/></clipPath><linearGradient id="linear-gradient-21" x1="2444.11" y1="1259.15" x2="2354.7" y2="1600.39" gradientTransform="translate(1656.58 -1321.25) rotate(45)" xlink:href="#linear-gradient-7"/><linearGradient id="linear-gradient-22" x1="2423.26" y1="1253.69" x2="2333.84" y2="1594.92" xlink:href="#linear-gradient-7"/><linearGradient id="linear-gradient-23" x1="2541" y1="1284.54" x2="2451.59" y2="1625.77" xlink:href="#linear-gradient-7"/><linearGradient id="linear-gradient-24" x1="-3842.49" y1="2098.09" x2="-3874.12" y2="2325.59" gradientTransform="matrix(-0.97, 0.24, 0.24, 0.97, -2304.23, -230.52)" xlink:href="#linear-gradient-11"/><linearGradient id="linear-gradient-25" x1="2403.61" y1="1492.04" x2="2462.01" y2="1167.18" xlink:href="#linear-gradient-11"/><linearGradient id="linear-gradient-26" x1="-3038.21" y1="1346.56" x2="-3069.84" y2="1574.06" gradientTransform="matrix(-1, 0, 0, 1, -636.61, 0)" xlink:href="#linear-gradient-11"/><linearGradient id="linear-gradient-27" x1="1986.01" y1="991.07" x2="2278.88" y2="1407.09" gradientTransform="translate(456.61 49.69) rotate(5.22)" xlink:href="#linear-gradient-7"/><linearGradient id="linear-gradient-28" x1="2396.62" y1="1217.23" x2="2502.36" y2="1401.06" xlink:href="#linear-gradient-7"/><linearGradient id="linear-gradient-29" x1="2424.37" y1="1116.57" x2="2424.37" y2="1335.03" xlink:href="#linear-gradient-10"/><linearGradient id="linear-gradient-30" x1="2547.14" y1="1116.57" x2="2547.14" y2="1335.03" xlink:href="#linear-gradient-10"/><linearGradient id="linear-gradient-31" x1="2312.26" y1="1116.57" x2="2312.26" y2="1335.03" xlink:href="#linear-gradient-10"/><linearGradient id="linear-gradient-32" x1="2321.2" y1="1238.68" x2="2614.07" y2="1654.73" xlink:href="#linear-gradient-7"/><clipPath id="clip-path-4" transform="translate(-452.44 -455)"><circle class="cls-1" cx="2895.21" cy="1260.12" r="186.17" transform="translate(-43.05 2416.3) rotate(-45)"/></clipPath><linearGradient id="linear-gradient-33" x1="3002.66" y1="1396.58" x2="3037.86" y2="1396.58" gradientUnits="userSpaceOnUse"><stop offset="0" stop-color="#4f52ff"/><stop offset="1" stop-color="#4042e2"/></linearGradient><linearGradient id="linear-gradient-34" x1="3475.97" y1="224.74" x2="3283.42" y2="604.77" xlink:href="#linear-gradient-10"/><linearGradient id="linear-gradient-35" x1="2747.26" y1="1377.82" x2="2878.24" y2="1377.82" xlink:href="#linear-gradient-33"/><linearGradient id="linear-gradient-36" x1="2694.29" y1="1392.59" x2="2762.03" y2="1392.59" xlink:href="#linear-gradient-33"/><linearGradient id="linear-gradient-37" x1="2890.96" y1="1383.25" x2="3013.76" y2="1383.25" xlink:href="#linear-gradient-33"/><linearGradient id="linear-gradient-38" x1="2931.9" y1="1119.37" x2="2865.21" y2="1427.16" xlink:href="#linear-gradient-11"/><linearGradient id="linear-gradient-39" x1="2891.83" y1="1218.68" x2="2934.57" y2="1014.38" xlink:href="#linear-gradient-11"/><linearGradient id="linear-gradient-40" x1="2941.36" y1="1229.05" x2="2984.1" y2="1024.74" xlink:href="#linear-gradient-11"/><linearGradient id="linear-gradient-41" x1="2849.07" y1="1209.74" x2="2891.82" y2="1005.43" xlink:href="#linear-gradient-11"/><linearGradient id="linear-gradient-42" x1="2897.05" y1="1121.45" x2="2916.98" y2="1275.66" xlink:href="#linear-gradient-6"/><linearGradient id="linear-gradient-43" x1="2841.36" y1="1287.17" x2="2830.04" y2="1467.13" xlink:href="#linear-gradient-33"/><linearGradient id="linear-gradient-44" x1="2939.76" y1="1296.01" x2="2928.8" y2="1470.28" xlink:href="#linear-gradient-33"/><linearGradient id="linear-gradient-45" x1="1566.47" y1="-968.51" x2="1373.92" y2="-588.47" xlink:href="#linear-gradient-10"/><linearGradient id="linear-gradient-46" x1="2018.91" y1="-513.51" x2="1826.36" y2="-133.47" gradientTransform="translate(1299.2 -329.79) rotate(45)" xlink:href="#linear-gradient-10"/><linearGradient id="linear-gradient-47" x1="2005.24" y1="-520.43" x2="1812.69" y2="-140.4" xlink:href="#linear-gradient-10"/><linearGradient id="linear-gradient-48" x1="2038.37" y1="-503.65" x2="1845.82" y2="-123.61" xlink:href="#linear-gradient-10"/><linearGradient id="linear-gradient-49" x1="1680.07" y1="-910.95" x2="1487.52" y2="-530.92" xlink:href="#linear-gradient-10"/><linearGradient id="linear-gradient-50" x1="2132.51" y1="-455.95" x2="1939.96" y2="-75.92" gradientTransform="translate(1219.16 -572.74) rotate(45)" xlink:href="#linear-gradient-10"/><linearGradient id="linear-gradient-51" x1="2118.84" y1="-462.88" x2="1926.29" y2="-82.84" xlink:href="#linear-gradient-10"/><linearGradient id="linear-gradient-52" x1="2151.97" y1="-446.09" x2="1959.42" y2="-66.06" xlink:href="#linear-gradient-10"/><linearGradient id="linear-gradient-53" x1="1852.1" y1="-823.69" x2="1659.55" y2="-443.66" xlink:href="#linear-gradient-10"/><linearGradient id="linear-gradient-54" x1="1852.14" y1="-823.77" x2="1659.59" y2="-443.74" xlink:href="#linear-gradient-10"/><linearGradient id="linear-gradient-55" x1="2290.91" y1="-375.7" x2="2098.36" y2="4.34" xlink:href="#linear-gradient-10"/><linearGradient id="linear-gradient-56" x1="2324.04" y1="-358.91" x2="2131.49" y2="21.12" xlink:href="#linear-gradient-10"/><linearGradient id="linear-gradient-57" x1="-2817.88" y1="1349.11" x2="-2702.85" y2="1637.65" gradientTransform="matrix(-1, 0, 0, 1, -1165.43, 0)" xlink:href="#linear-gradient-7"/><linearGradient id="linear-gradient-58" x1="-3128.54" y1="1047.12" x2="-2916.03" y2="1530.62" gradientTransform="matrix(-0.98, -0.21, -0.21, 0.98, -915.01, -113.52)" xlink:href="#linear-gradient-11"/><linearGradient id="linear-gradient-59" x1="-2397.39" y1="3196.4" x2="-2299.85" y2="3196.4" gradientTransform="matrix(-1, 0, 0, 1, -1165.43, 0)" xlink:href="#linear-gradient-7"/><linearGradient id="linear-gradient-60" x1="-2809.54" y1="3581.04" x2="-2669.17" y2="1940.52" gradientTransform="matrix(-1, 0, 0, 1, -1165.43, 0)" xlink:href="#linear-gradient-11"/><linearGradient id="linear-gradient-61" x1="-2850.55" y1="3178.59" x2="-2692.72" y2="3178.59" gradientTransform="matrix(-1, 0, 0, 1, -1165.43, 0)" xlink:href="#linear-gradient-7"/><linearGradient id="linear-gradient-62" x1="-2527.19" y1="3605.45" x2="-2386.78" y2="1964.5" gradientTransform="matrix(-1, 0, 0, 1, -1165.43, 0)" xlink:href="#linear-gradient-11"/><linearGradient id="linear-gradient-63" x1="2991.4" y1="-9504.13" x2="2798.85" y2="-9124.09" gradientTransform="matrix(-1, 0, 0, 1, -1165.43, 0)" xlink:href="#linear-gradient-10"/><linearGradient id="linear-gradient-64" x1="-2419.45" y1="1958.64" x2="-2770.39" y2="2520.13" gradientTransform="matrix(-1, 0, 0, 1, -1165.43, 0)" xlink:href="#linear-gradient-33"/><linearGradient id="linear-gradient-65" x1="-2824.93" y1="1963.98" x2="-2798.57" y2="1771.08" gradientTransform="matrix(-1, 0, 0, 1, -1165.43, 0)" xlink:href="#linear-gradient-11"/><linearGradient id="linear-gradient-66" x1="-2948.31" y1="1282.55" x2="-2718.24" y2="873.11" gradientTransform="matrix(-0.98, -0.19, -0.19, 0.98, -936.34, -99.24)" xlink:href="#linear-gradient-11"/><linearGradient id="linear-gradient-67" x1="-2898.83" y1="926" x2="-2783.8" y2="1214.55" gradientTransform="matrix(-0.98, -0.19, -0.19, 0.98, -936.34, -99.24)" xlink:href="#linear-gradient-7"/><linearGradient id="linear-gradient-68" x1="-2899.33" y1="1310.07" x2="-2669.27" y2="900.64" gradientTransform="matrix(-0.98, -0.19, -0.19, 0.98, -936.34, -99.24)" xlink:href="#linear-gradient-11"/><linearGradient id="linear-gradient-69" x1="-3170.53" y1="1065.58" x2="-2958.03" y2="1549.08" gradientTransform="matrix(-0.98, -0.21, -0.21, 0.98, -915.01, -113.52)" xlink:href="#linear-gradient-11"/><linearGradient id="linear-gradient-70" x1="2045.52" y1="1439.86" x2="2102.75" y2="1439.86" xlink:href="#linear-gradient-11"/><linearGradient id="linear-gradient-71" x1="-4032.34" y1="2013.5" x2="-4285.22" y2="2082.8" gradientTransform="matrix(-1, -0.05, -0.05, 1, -2381.27, -55.03)" xlink:href="#linear-gradient-7"/><linearGradient id="linear-gradient-72" x1="-4312.43" y1="1993.88" x2="-4490.8" y2="2182.41" gradientTransform="matrix(-1, 0, 0, 1, -2422.74, 0)" xlink:href="#linear-gradient-7"/><linearGradient id="linear-gradient-73" x1="1175.09" y1="2213.47" x2="1726.54" y2="1982.78" xlink:href="#linear-gradient-11"/></defs><title>crm</title><g id="Illustration"><path class="cls-2" d="M2920.06,2864.87c-73,75.26-138.34,119.5-188.36,152.9-487.84,325.73-1045.48,231.85-1217.9,199.76-278.16-51.77-513-88.3-714.71-270.56C340.67,2532.8,363,1668.82,713.26,1133.63c41.53-63.46,391.29-581.91,950.14-655,13.67-1.78,23.87-2.8,32.8-3.75,86.46-9.15,622.19-57.46,1059,308.52,62.53,52.39,163.16,146.89,256.48,291C3352.92,1601.41,3354,2417.58,2920.06,2864.87Z" transform="translate(-452.44 -455)"/><path class="cls-3" d="M1339.89,1760.4C1407.75,1628.57,1534,1535.63,1680.6,1519l10-634.74a9.67,9.67,0,0,0-9.74-9.83c-413.53,4.48-778.43,261.86-948.73,643.09a10.62,10.62,0,0,0,5.94,14.21Z" transform="translate(-452.44 -455)"/><path class="cls-4" d="M2157,2064.5a19,19,0,0,0-18.63,13.28c-7.1,22.7-20.08,66.24-22.2,71.75a582.4,582.4,0,0,1-36.63,77.88c-26.31,46.32-59.95,88.76-101.45,122.37-105.19,85.18-256.4,101-382.53,58.85-3.6-1.2-7.16-2.49-10.71-3.82a14.11,14.11,0,0,0-17.32,6.42l-318,580c154.43,77.44,299.76,97.69,482.09,86,529.73-33.95,945.69-464.06,991.86-997.45Z" transform="translate(-452.44 -455)"/><path class="cls-3" d="M2157,2064.5c-34.48,211.66-190.9,377-403.46,384.25-59.79,2-131.14-11.86-183.59-33.1a11.89,11.89,0,0,0-14.7,5.12l-326.9,562.35a993.28,993.28,0,0,0,511.14,103.66c529.73-34,945.7-477.12,991.87-1010.5Z" transform="translate(-452.44 -455)"/><path class="cls-3" d="M1160.25,2894.33l316.52-567.7a9.58,9.58,0,0,0-2.23-12c-97.45-82.06-175.35-192.09-175.35-334.76,0-35.19-15.6-86.41-8.45-119.42L695.5,1647.6A1157.17,1157.17,0,0,0,644.62,1988c0,383.17,203.59,720.17,483.14,913.89A22.52,22.52,0,0,0,1160.25,2894.33Z" transform="translate(-452.44 -455)"/><path class="cls-5" d="M1128.6,2878.2l328-560.68a17.24,17.24,0,0,0-3.46-21.65c-94.1-82.76-154-207.16-154-347.51a484,484,0,0,1,11-102.51L704.41,1619.43a8.91,8.91,0,0,0-11.67,5.77,1157.71,1157.71,0,0,0-48.12,331.3C644.62,2349,838.55,2687,1128.6,2878.2Z" transform="translate(-452.44 -455)"/><path class="cls-5" d="M1796.64,1522.05c187.75,31.4,333.34,189.49,358,387a21.63,21.63,0,0,0,20.69,19l908.07,30.43,7.13-6.91C3087.76,1192,2543.05,541.14,1813.41,455Z" transform="translate(-452.44 -455)"/><circle class="cls-3" cx="2328.57" cy="938.11" r="219.76" transform="translate(-433.76 1466.31) rotate(-45)"/><circle class="cls-6" cx="2326.49" cy="938.75" r="199.87" transform="translate(-434.82 1465.03) rotate(-45)"/><g class="cls-7"><path class="cls-4" d="M2217.54,1135c3.15-14.62,5.64-24.19,5.64-24.19l-55.56-94.09s-18,18.21-28.76,97.51A18.3,18.3,0,0,0,2157,1135Z" transform="translate(-452.44 -455)"/><path class="cls-4" d="M2518,1113.91c-15.43-68.76-42.89-100.77-42.89-100.77l-34.77,115.19s1.05,2.27,2.65,6.66h58.14A17.3,17.3,0,0,0,2518,1113.91Z" transform="translate(-452.44 -455)"/><path class="cls-4" d="M2217.11,1135c57.12,21,134.72,18.07,225.28,0a296,296,0,0,1,8.85-29.07l23.9-92.81c-33.49-30-80.57-40-98.68-42.76-42.09-10.44-91.28-1.19-91.28-1.19-66.7,4.66-117.56,47.46-117.56,47.46l41.33,94.05A190.25,190.25,0,0,1,2217.11,1135Z" transform="translate(-452.44 -455)"/><path class="cls-8" d="M2293.72,923.82l-1.42,46.87a10.63,10.63,0,0,0,7.1,10.36c12,4.23,36.8,10.66,60.32,2.24a10.6,10.6,0,0,0,6.86-11.54l-7-47.93Z" transform="translate(-452.44 -455)"/><path class="cls-9" d="M2276.36,845.11s2.75,63.33,13.76,88.11,38.55,24.79,41.3,24.79,27.54-5.51,41.31-27.54S2392,836.85,2392,836.85s-24.78-27.53-57.82-30.28S2276.36,831.35,2276.36,845.11Z" transform="translate(-452.44 -455)"/><path class="cls-10" d="M2380,868s12.64-19,19-12.63-6.32,47.38-19,47.38S2380,868,2380,868Z" transform="translate(-452.44 -455)"/><path class="cls-11" d="M2285.21,871.13s-15.79-22.11-22.11-15.79,9.48,47.38,22.11,47.38Z" transform="translate(-452.44 -455)"/><path class="cls-12" d="M2399.8,829.6c.08-4.28-.16-8.71-.38-13.76a100.55,100.55,0,0,1,.79-15.11c1.55-14.48-13.56-25.94-27.23-22.31a5.24,5.24,0,0,1-3.21.24c-1.27-.49-1.83-1.94-2.33-3.2-3.16-7.88-11.57-18.07-19.53-21.4a43.8,43.8,0,0,0-21.78-3.22,44.48,44.48,0,0,0-34.74,25.24,4.46,4.46,0,0,1-1.43,2,4.18,4.18,0,0,1-2.22.44c-7.45.1-16-1.54-22.33,3.05-5.34,3.89-9.24,9.94-9.62,16.63-.42,7.31,2.73,14.31,6,20.87,2,4,4,8.53,2.45,12.67a38.9,38.9,0,0,1-1.89,3.62c-6.79,13.46,11,26.71,14.33,38.8q3.73,13.74,7.48,27.5a66,66,0,0,0,.94-17.8c-.68-8.18-2.89-16.25-2.6-24.45a39.88,39.88,0,0,1,4.29-17c2.61-5.06,7.37-7.28,10.93-11.71,3.29,3.07,6.88,6.29,11.34,6.94a19,19,0,0,0,8.35-1.11c4.09-1.28,9.89-5.9,13.87-6.21s5.34,3.85,8,6c7.28,6.12,19.67,7.81,28.4,4.16-2,.85,9.8,22.89,10.18,24.89a238.7,238.7,0,0,1,4.06,35.57c.94.69,2-.72,2.31-1.84,2.15-8,2.81-16.22,4.2-24.34,1.56-9.18,5.28-17.82,8.27-26.59A58.12,58.12,0,0,0,2399.8,829.6Z" transform="translate(-452.44 -455)"/></g><circle class="cls-3" cx="2764.25" cy="827.1" r="201.37" transform="translate(-227.66 1741.87) rotate(-45)"/><circle class="cls-6" cx="2309.9" cy="372.7" r="183.15"/><g class="cls-13"><path class="cls-14" d="M2723.06,787.91c-11.59,0-23.62,1.48-28.16-12.49-8.54-26.3,5.81-65.63,29.35-79.95,7.88-4.79,17.06-6.88,26.1-8.7,10.62-2.13,19.81-2.66,29.39,2.49,8.84,4.76,17.42-2.89,26.59,3.22,7.79,5.19,13.76,13.36,17.92,21.61,5.44,10.78,8.26,22.67,10.63,34.51.54,2.68,1,5.46.45,8.13a19.71,19.71,0,0,1-3,6.15c-9.51,14.72-22.16,25-40.46,25Z" transform="translate(-452.44 -455)"/><path class="cls-15" d="M2720.74,741.61s2.09,4.39-11.56,11.25c-7.61,3.83-22.42,9.49-24.38,26-1,8.53-4.34,29.59-12.45,30.89-20.21,3.24-47.49,15.85-50,40.37-2.92,28.14,5.17,42.92,19.5,46.6,10.52,2.7,13.19,5.53,11.06,16.65-2,10.67,6,49,23.71,58.7,39.56,21.85,74-77.72,74-77.72l8.1-128.56Z" transform="translate(-452.44 -455)"/><path class="cls-16" d="M2811.27,730.37s-2.14,4.65,11.76,11.92c7.75,4.06,22.83,10.05,24.82,27.55,1,9,3.43,21.73,11.69,23.11,20.58,3.43,44.42,23.48,49.49,62.39,3.87,29.71-4.58,61.56-19.17,65.46-10.71,2.86-9.9-2.81-7.73,9,2.07,11.3-2.8,6.94-20.78,17.27-40.27,23.16-80.49-54.85-80.49-54.85L2772.62,756Z" transform="translate(-452.44 -455)"/><path class="cls-17" d="M2757.43,873.11s30.57-7.88,37.06,1.86c3.25,16.2,4.92,32.29,4.92,32.29l-35.23,6.61-23.29-5.36-5.54-3.22-2.3-22.94S2745,875.44,2757.43,873.11Z" transform="translate(-452.44 -455)"/><path class="cls-18" d="M2720.76,791.41s-4.92-14.75-12.29-9.83,11.07,36.28,11.07,36.28Z" transform="translate(-452.44 -455)"/><path class="cls-19" d="M2794.49,791.41s0-22.12,12.29-9.83-12.29,29.49-12.29,29.49Z" transform="translate(-452.44 -455)"/><path class="cls-20" d="M2910.25,992.29c-10.29-49.67-25.07-88.49-29.73-90.73l-27.91,69a181.71,181.71,0,0,0-5.17,46.11h42.91A20.31,20.31,0,0,0,2910.25,992.29Z" transform="translate(-452.44 -455)"/><path class="cls-21" d="M2695.46,1016.7c1.28-22.19.72-36.16.72-36.16l-39.32-63.84s-4.92,19.57-9.84,71.18q-.33,3.6-.65,7.32a19.86,19.86,0,0,0,19.79,21.5Z" transform="translate(-452.44 -455)"/><path class="cls-22" d="M2749.89,1016.84h42.82l11.62-122.06s-9.84-2.53-14.75-19.73-7.38-51.65-7.38-51.65L2738,833.21s4.92,46.84-4.91,69Z" transform="translate(-452.44 -455)"/><path class="cls-23" d="M2815.82,1016.84l6.16-77.05c-44.85,26.84-91,25.53-137.75,11.31l13.28,65.74Z" transform="translate(-452.44 -455)"/><path class="cls-24" d="M2760.4,1016.7c-13.29-64.11-27.35-134.27-27.35-134.27l-7.38,14.7-68.81,19.72c3.37,15.73,13.65,59,24,99.85Z" transform="translate(-452.44 -455)"/><path class="cls-25" d="M2858.74,1016.7c3.67-19.64,6.9-35,6.9-35l14.88-80.17c-4.68-4.69-78.16-14.76-78.16-14.76l-7.87-11.74s-9.81,71.32-18.19,141.64Z" transform="translate(-452.44 -455)"/><path class="cls-26" d="M2715.84,757s-2.45,59,4.92,68.82,17.2,31.95,34.41,34.41,44.24-46.7,44.24-49.16-2.46-66.36-2.46-66.36S2745.34,702.93,2715.84,757Z" transform="translate(-452.44 -455)"/><path class="cls-27" d="M2706,747.17s-9.83,29.49,19.66,19.66l29.5-9.83s29.49-17.21,34.41-9.83,9.83,25.53,9.83,25.53,9.83-25.53,0-40.28S2728.13,705.38,2706,747.17Z" transform="translate(-452.44 -455)"/></g><circle class="cls-3" cx="1967.19" cy="972.59" r="227.54"/><circle class="cls-6" cx="1965.03" cy="973.27" r="206.95"/><g class="cls-28"><circle class="cls-29" cx="2423.18" cy="1339.05" r="67.5" transform="translate(-689.55 1650.64) rotate(-45)"/><path class="cls-30" d="M2358.35,1320.2c-29.69,102.66-49.87,196-46.6,222.23l86.56-9.13,10-189.9Z" transform="translate(-452.44 -455)"/><path class="cls-31" d="M2454.16,1309.6l-11.88,232.12,97.94,52.15c-2-79.32-42.58-283.16-59.17-288.62Z" transform="translate(-452.44 -455)"/><polygon class="cls-32" points="2001.75 980.31 2004.6 1043.53 1943.28 1052.76 1939.42 986.39 2001.75 980.31"/><path class="cls-33" d="M2483.26,1397.24s-14.69,65.63-54.45,73.51-51.54-54-53.64-58.39c0,0-8.89,4.19-10.89-4.65s-12.48-31.07,7.3-30.62c0,0-3.89-22.08,3-32.91s20.64-36.91,49.06-29.67S2497.44,1345.68,2483.26,1397.24Z" transform="translate(-452.44 -455)"/><path class="cls-34" d="M2456.08,1477.39,2495,1498,2444,1553.89l-94.14-59.22c14.34-5.35,28.44-12.55,41.32-14.69Z" transform="translate(-452.44 -455)"/><path class="cls-35" d="M2373.81,1318.38c-13.29,18.58-2.84,35.07-6.41,48.42,12.87-4.68,56.33-11.68,69.42-10.39,2.7-8.89-2.61-23.68-5.33-35.34,4.25,11.07,14,28,12.92,36.76,17.56.81,14,1.05,33.71,9l-15.37-53.61C2428.52,1297.2,2399,1299.23,2373.81,1318.38Z" transform="translate(-452.44 -455)"/><path class="cls-36" d="M2439.24,1255.38c0,12.88-12.13,27.35-20.87,27.35-7.2,0-20.87-14.47-20.87-27.35s9.35-23.34,20.87-23.34S2439.24,1242.49,2439.24,1255.38Z" transform="translate(-452.44 -455)"/><path class="cls-37" d="M2522.87,1637.91l21.4-119.08c-29.12-19.81-56.11-29.24-88.19-41.4-9.94,20.68-55.36,18.63-64.86,2.57-30.21,7.67-59,21.85-86.76,40.22l29.3,117.69Z" transform="translate(-452.44 -455)"/><path class="cls-38" d="M2581.59,1616.85c-17.34-74.14-37.32-98-37.32-98l-32,97.47s3.86,7.78,8.93,21.61h43.69A17.17,17.17,0,0,0,2581.59,1616.85Z" transform="translate(-452.44 -455)"/><path class="cls-39" d="M2335.88,1637.91a282.35,282.35,0,0,1,14.41-39.78l-45.83-77.88s-22.6,39.27-30.09,98.41a17.14,17.14,0,0,0,17,19.25Z" transform="translate(-452.44 -455)"/><path class="cls-40" d="M2460.74,1314.38c22.71,57.43,34.05,219.38,20.18,305,21.71-74.77,48.76-169.61,7.43-297.14Z" transform="translate(-452.44 -455)"/></g><circle class="cls-3" cx="2443.65" cy="803.05" r="204.7"/><circle class="cls-6" cx="2894.14" cy="1258.66" r="186.17" transform="translate(-494.77 1960.12) rotate(-45)"/><g class="cls-41"><path class="cls-42" d="M3019.16,1465.36a18.7,18.7,0,0,0,18.7-18.83c-.2-29.73-.8-55.84-2.19-70.26-3.53-36.8-23.06-48.47-23.06-48.47l-10,137.56Z" transform="translate(-452.44 -455)"/><path class="cls-43" d="M2971.12,1465.36c-1.45-77.06-2.88-140.79-2.88-140.79-34.89-21.47-163.73-18.78-163.73-18.78s-9,74.34-19.15,159.57Z" transform="translate(-452.44 -455)"/><path class="cls-44" d="M2758.34,1465.36h119.9c-3.85-37.25-34.81-175.08-34.81-175.08l-96.17,29.43s7.59,85.93,7.59,112.77C2754.85,1438.63,2756.58,1450.56,2758.34,1465.36Z" transform="translate(-452.44 -455)"/><path class="cls-45" d="M2762,1465.36c.43-45.42-.38-129.2-14.69-145.55,0,0-18.53,9.54-37.32,71.27-5.42,17.82-10.35,34.74-14.94,50.85a18.4,18.4,0,0,0,17.71,23.43Z" transform="translate(-452.44 -455)"/><path class="cls-46" d="M3009,1465.36c3.46-65.32,6.48-134.93,3.61-137.8-5.37-5.37-69.87-26.42-69.87-26.42s-42,128.5-51.78,164.22Z" transform="translate(-452.44 -455)"/><path class="cls-47" d="M2847.45,1313.07l16.11-56.37h59.05l8,64.42S2879.67,1334.54,2847.45,1313.07Z" transform="translate(-452.44 -455)"/><path class="cls-48" d="M2847.45,1183.48s5.55,53.93,14.91,75,32.76,21.06,35.1,21.06,23.39-4.68,35.09-23.4,16.38-79.54,16.38-79.54-21.06-23.4-49.13-25.74S2847.45,1171.79,2847.45,1183.48Z" transform="translate(-452.44 -455)"/><path class="cls-49" d="M2938.72,1203s10.73-16.11,16.1-10.74-5.37,40.27-16.1,40.27S2938.72,1203,2938.72,1203Z" transform="translate(-452.44 -455)"/><path class="cls-50" d="M2858.19,1205.7s-13.42-18.79-18.79-13.42,8,40.27,18.79,40.27Z" transform="translate(-452.44 -455)"/><path class="cls-51" d="M2966.26,1171.07a49.89,49.89,0,0,0,2.66-23.51c-1.39-11.92-7.8-34-16.66-42.89,2.52,2.52-21.55,12.7-25.26,12.33,7.24-5.89,16.24-12.63,16.57-22.91-8.38,5.64-18.59,7.69-28.53,9.44-24.8,4.37-51.45,3.45-70.53,22.22-8,7.84-13.38,19.94-11.34,31.25,1.5,8.26,13.79,17,6.23,24.55-5.35,5.37,10.85,15.14,13.48,30.38a26.71,26.71,0,0,0,.7,3.27c-.24-7.79-3.23-16.16-3-23.74.39-15.54,23.82-16.63,35.28-17.66,15.25-1.37,31.88-1.24,45.07-10.15,5.37-3.62,8.78,25.66,9,27.1,1.33,8.33,2.91,17.27,1.5,25.69h3.7c1.07-9.88.08-19.33,7.35-26.52a74.53,74.53,0,0,0,9.79-11.07A38.5,38.5,0,0,0,2966.26,1171.07Z" transform="translate(-452.44 -455)"/><path class="cls-52" d="M2860.7,1266.73c-2,12.34-2.68,18.3-6.61,30.18-3.54,10.72-.93,25.66-.72,36.93.3,15.74,12.53,33,9.85,48.42-6.85-19.24-27.75-34.21-38.46-52.18-10.45-17.55-17.91-31.72-6-48.28C2826.2,1271.52,2860.85,1265.77,2860.7,1266.73Z" transform="translate(-452.44 -455)"/><path class="cls-53" d="M2923.91,1318.33c1.48,32.77-4.94,39.43-10.15,72.54,7-22.38,22.76-34.13,35.17-54.08,12.23-19.66,16.19-44.17-3.83-57.27-1.37-.9-20.74-9.87-20.65-8.13C2924.69,1276.18,2923.27,1304.13,2923.91,1318.33Z" transform="translate(-452.44 -455)"/></g><circle class="cls-54" cx="595.25" cy="948.38" r="140.37"/><circle class="cls-55" cx="1047.69" cy="1403.38" r="135.7" transform="translate(-1137.91 696.87) rotate(-45)"/><path class="cls-56" d="M922.6,1398h-.07a1.29,1.29,0,0,1-1.22-1.35,128,128,0,0,1,1.84-15.89,1.28,1.28,0,1,1,2.53.45,125,125,0,0,0-1.8,15.57A1.28,1.28,0,0,1,922.6,1398Z" transform="translate(-452.44 -455)"/><path class="cls-56" d="M935.79,1348.29a1.24,1.24,0,0,1-.58-.14,1.28,1.28,0,0,1-.56-1.72,126,126,0,0,1,113-69.61,128,128,0,0,1,22.83,2.06,1.29,1.29,0,0,1-.46,2.53,124.75,124.75,0,0,0-22.37-2,123.47,123.47,0,0,0-110.75,68.19A1.29,1.29,0,0,1,935.79,1348.29Z" transform="translate(-452.44 -455)"/><circle class="cls-57" cx="1050.65" cy="1406.33" r="114.85" transform="translate(-1139.14 699.83) rotate(-45)"/><path class="cls-58" d="M1085.81,1362.93c0,19.45-15.76,40.45-35.21,40.45s-35.21-21-35.21-40.45,15.76-33.24,35.21-33.24S1085.81,1343.49,1085.81,1362.93Z" transform="translate(-452.44 -455)"/><path class="cls-59" d="M1006.9,1478.25h86a20.81,20.81,0,0,0,19.82-14.47l4.62-14.45a20.79,20.79,0,0,0-12.55-25.87c-35-12.79-71.16-11.15-108.22,1.18a20.72,20.72,0,0,0-13.27,25.12l3.56,13.13A20.8,20.8,0,0,0,1006.9,1478.25Z" transform="translate(-452.44 -455)"/><circle class="cls-60" cx="848.51" cy="730.29" r="140.37"/><circle class="cls-61" cx="1300.95" cy="1185.29" r="135.7" transform="translate(-909.52 812.07) rotate(-45)"/><path class="cls-56" d="M1175.85,1179.92h-.06a1.28,1.28,0,0,1-1.22-1.35,128,128,0,0,1,1.84-15.89,1.28,1.28,0,0,1,2.53.45,123,123,0,0,0-1.8,15.58A1.29,1.29,0,0,1,1175.85,1179.92Z" transform="translate(-452.44 -455)"/><path class="cls-56" d="M1189.05,1130.2a1.21,1.21,0,0,1-.58-.14,1.28,1.28,0,0,1-.57-1.72,126,126,0,0,1,113-69.6,127.92,127.92,0,0,1,22.82,2,1.29,1.29,0,1,1-.46,2.53,124.2,124.2,0,0,0-133.11,66.18A1.3,1.3,0,0,1,1189.05,1130.2Z" transform="translate(-452.44 -455)"/><circle class="cls-57" cx="1303.9" cy="1188.24" r="114.85" transform="translate(-910.75 815.03) rotate(-45)"/><path class="cls-62" d="M1339.07,1144.84c0,19.45-15.77,40.45-35.22,40.45s-35.21-21-35.21-40.45,15.77-33.24,35.21-33.24S1339.07,1125.4,1339.07,1144.84Z" transform="translate(-452.44 -455)"/><path class="cls-63" d="M1260.15,1260.16h86a20.82,20.82,0,0,0,19.82-14.46l4.63-14.46a20.78,20.78,0,0,0-12.56-25.86c-35-12.8-71.16-11.15-108.21,1.18a20.71,20.71,0,0,0-13.28,25.11l3.56,13.13A20.8,20.8,0,0,0,1260.15,1260.16Z" transform="translate(-452.44 -455)"/><circle class="cls-64" cx="900.28" cy="1054.9" r="140.37"/><circle class="cls-65" cx="900.28" cy="1054.9" r="135.7"/><path class="cls-56" d="M1227.63,1504.54h-.07a1.3,1.3,0,0,1-1.22-1.35,127.92,127.92,0,0,1,1.84-15.9,1.29,1.29,0,1,1,2.53.46,124.51,124.51,0,0,0-1.8,15.57A1.28,1.28,0,0,1,1227.63,1504.54Z" transform="translate(-452.44 -455)"/><path class="cls-56" d="M1240.82,1454.82a1.37,1.37,0,0,1-.58-.14,1.29,1.29,0,0,1-.57-1.73,126,126,0,0,1,113-69.6,128,128,0,0,1,22.83,2.05,1.29,1.29,0,0,1,1,1.5,1.27,1.27,0,0,1-1.49,1,125.67,125.67,0,0,0-22.37-2A123.47,123.47,0,0,0,1242,1454.11,1.29,1.29,0,0,1,1240.82,1454.82Z" transform="translate(-452.44 -455)"/><circle class="cls-57" cx="903.24" cy="1057.86" r="114.85"/><path class="cls-66" d="M1390.84,1469.46c0,19.45-15.77,40.44-35.21,40.44s-35.22-21-35.22-40.44,15.77-33.25,35.22-33.25S1390.84,1450,1390.84,1469.46Z" transform="translate(-452.44 -455)"/><path class="cls-67" d="M1311.93,1584.78h86a20.79,20.79,0,0,0,19.81-14.47l4.63-14.46a20.78,20.78,0,0,0-12.56-25.86c-35-12.79-71.15-11.15-108.21,1.18a20.73,20.73,0,0,0-13.28,25.12l3.57,13.13A20.8,20.8,0,0,0,1311.93,1584.78Z" transform="translate(-452.44 -455)"/><path class="cls-68" d="M1584.24,1504.32s-38.78,18.87-45.91,40.53c-5.72,17.39-48.6,19.63-52.83,53.82-2.19,17.66-15.25,31.8-32.84,34.49-43.79,6.71-111.28,29.45-122.08,105.49-8.24,58,21.34,80,52.39,87.66,22.81,5.6,38,27.78,33.35,50.8-4.42,22.09,2.18,47.62,40.43,67.8,85.74,45.24,171.36-107.17,171.36-107.17l17.54-266.13Z" transform="translate(-452.44 -455)"/><path class="cls-69" d="M2050.75,1441.23S1879.57,1712,1676,1764.29c0,0,39.67,113,70.28,125.9,0,0,250.43-209,314.78-410.48Z" transform="translate(-452.44 -455)"/><path class="cls-70" d="M1231.84,3173l-5.55,45.61a18.84,18.84,0,0,1-16.52,16.48c-14.63,1.67-38.09,3.38-61,1a16.14,16.14,0,0,1-13.55-20.93c5.59-17.61,15.83-44,30.59-59.59h50.6A15.59,15.59,0,0,1,1231.84,3173Z" transform="translate(-452.44 -455)"/><path class="cls-71" d="M1628.11,2638.73l8.54,50.24s-28.6,289.66-33.69,405.53a90.91,90.91,0,0,0,13.44,51.6l49.73,80.75-126.38-74.58-2.52-15.42,20.69-28.44-27.1-324.5a99.54,99.54,0,0,1,11.33-55.06l26.14-49.11Z" transform="translate(-452.44 -455)"/><path class="cls-72" d="M1674.45,3238.54h-40.33a24.27,24.27,0,0,1-19.27-9.44c-12.58-16.34-38.62-48.21-51.08-49-16.77-1.12-14.62,58.48-14.62,58.48h-9.4l-11.91-74.07a43.87,43.87,0,0,1,23-45.83s3.83,28.35,24.62,40.89S1660,3217,1660,3217a57.48,57.48,0,0,1,16.39.43C1689.16,3219.7,1687.38,3238.54,1674.45,3238.54Z" transform="translate(-452.44 -455)"/><path class="cls-73" d="M1455,2662.59s-167.53,317.79-194.16,390.35-36,133.08-36.32,138.81c-.55,9-11.69,17.55-42.4,17.55-15.85,0-23.61-6.35-27.41-12.5a17.92,17.92,0,0,1-.68-17.34c9.7-19.61,40.45-82.29,51.84-110.71,13.6-33.94,42.85-187.76,58.89-241.23s34.18-111.49,104-164.93C1368.81,2662.59,1416.77,2615.62,1455,2662.59Z" transform="translate(-452.44 -455)"/><path class="cls-74" d="M1560.85,2141.88c43.21-183.12-66.27-286.69-66.27-286.69,69.08-66.31,194.94-96.48,194.94-96.48s120.1,87.8,105.85,156.53C1787,1955.52,1711,2156.5,1711,2156.5S1640.62,2189.79,1560.85,2141.88Z" transform="translate(-452.44 -455)"/><path class="cls-75" d="M1465,2232.54c17.59-53,95.82-90.66,95.82-90.66,79.77,47.91,150.1,14.62,150.1,14.62s15.78,60.3,4.89,116.33S1636.65,2689,1636.65,2689C1529,2710.77,1363.49,2667,1363.49,2667,1432,2545.31,1447.44,2285.52,1465,2232.54Z" transform="translate(-452.44 -455)"/><path class="cls-76" d="M1611,1637.7l-35.14,157.82c-3.36,13.9,9.31,11.62,23.37,9,23-4.34,52.68-13.27,62.59-31.18a16.91,16.91,0,0,0,1.8-6l15.1-109.43a19.69,19.69,0,0,0-11.51-20.67l-29.13-12.91A19.66,19.66,0,0,0,1611,1637.7Z" transform="translate(-452.44 -455)"/><path class="cls-77" d="M1678.3,1493.83s37.41,25.32,53.48,89.8-10,87.61-36.82,86.19-65.6-9.69-99.23-56S1629.29,1462.89,1678.3,1493.83Z" transform="translate(-452.44 -455)"/><path class="cls-78" d="M1629.65,1587.86s-13.71-92.4,63-78.26l15.52,16.15s37.54-42.29-4-74.25-99.21-23.78-131.11,34.41-43.48,99.08-16.74,135.24,46.85,5.15,46.85,5.15-12.27-31.3-2.09-44.73,23.3,7.81,23.3,7.81Z" transform="translate(-452.44 -455)"/><path class="cls-79" d="M1619.16,1595.77s-6.76-47.53-31-33.94,8.75,44.4,22,54.89Z" transform="translate(-452.44 -455)"/><path class="cls-80" d="M2049.57,1497c.52,5.59-20.25,9.45-26.86-14.36,1.82-10.34,5-55.61,13-62.64,42.21-37.46,117.49-79.59,117.49-79.59,8.42,12.85-2.62,21.32-2.62,21.32L2113,1387.06c3.92,13,9.64,24.46,10.29,39.28a44,44,0,0,1-11.11,30.73c-7.48,8.54-17.54,19.57-26.62,28C2068.35,1500.87,2049.57,1497,2049.57,1497Z" transform="translate(-452.44 -455)"/><path class="cls-81" d="M2070,1478.52l-5.74-2.36c.76-1.86,18.79-45.68,27.51-54.79,3.32-3.46,4.92-6.42,4.77-8.81a6.23,6.23,0,0,0-1.93-3.87l-30.4,16.26-13.43,21-5.24-3.35,14.3-22.4,35.62-19,1.61,1.31c3.6,3,5.46,6.11,5.67,9.68.27,4.25-1.85,8.66-6.47,13.49C2089.68,1432.53,2075.06,1466.14,2070,1478.52Z" transform="translate(-452.44 -455)"/><path class="cls-82" d="M1600,2238.49c.24,0,.48,0,.72,0l313.89-.34a13.9,13.9,0,1,0,0-27.8l-313.89.34a13.9,13.9,0,0,0-.69,27.79Z" transform="translate(-452.44 -455)"/><path class="cls-83" d="M2196.78,1956.51H1935.37a49.87,49.87,0,0,0-45.06,28.27l-120.85,253.54h324.86a30.27,30.27,0,0,0,28.16-19l93.71-234.61A20.68,20.68,0,0,0,2196.78,1956.51Z" transform="translate(-452.44 -455)"/><ellipse class="cls-84" cx="2032.22" cy="2092.75" rx="33.16" ry="20.57" transform="translate(-1043.95 2912.73) rotate(-71.76)"/><path class="cls-85" d="M1494.13,1855.57c-42.83,43.21-97.16,234.78-70.2,266.77,23.73,37.25,104.56,87.95,181.52,88H1719c-47.72-50.7-80.57-63.56-119.7-28.1-31-13.27-71.31-64.66-98.18-87.61a28.66,28.66,0,0,1-6-36.32c21.35-36.14,48.12-73.29,56.63-109.28C1553.6,1906.88,1522.4,1858.61,1494.13,1855.57Z" transform="translate(-452.44 -455)"/><path class="cls-5" d="M2058.87,3251.53a11.25,11.25,0,0,1-7.86-3.88c-29.12-33.64-242.31-298-5.64-572.1,224.67-260.2,331-318.16,335-461.41.46-16.73,22.6-22.4,31.11-8,63.59,107.7,169.19,362.23-102.45,554.93-299.66,212.56-258.36,417.78-238.76,475.5a11.3,11.3,0,0,1-11.38,15Z" transform="translate(-452.44 -455)"/><path class="cls-5" d="M2098.2,3253.9a16.28,16.28,0,0,1-14.93-12.55c-11.13-47.92-43.15-227.71,86.7-285.79,143-63.93,271.87,64,371.82-51.24a8.22,8.22,0,0,1,14.42,6.12c-5.41,56.67-38.48,189.48-227,229.88-201.81,43.24-223,68.36-216.7,97.06a13.71,13.71,0,0,1-14.29,16.52Z" transform="translate(-452.44 -455)"/><path class="cls-5" d="M2384.14,2359.61a211,211,0,0,1-7.48,31,306.68,306.68,0,0,1-11.06,29.73,376.46,376.46,0,0,1-29.88,56c-23,35.7-51.62,67.7-83.76,95.42a579.1,579.1,0,0,1-50.47,38.38,483.53,483.53,0,0,0-47.82,37.52,532.6,532.6,0,0,0-80.88,90.8c-46.68,66.36-77.48,144.53-83.45,225.73a426,426,0,0,0,8.45,121.52c8.49,40,23,78.77,41.07,115.81a4,4,0,0,1-7,3.73,477.28,477.28,0,0,1-47.38-116.39,414.55,414.55,0,0,1-13-125.78c1.95-42.4,10.71-84.45,24.86-124.48s34.1-78,58-113a531.65,531.65,0,0,1,83.9-95.33,505.61,505.61,0,0,1,50-39.5,581.71,581.71,0,0,0,49-36.52c31.15-26,59.52-55.41,83.36-88.35a428.51,428.51,0,0,0,32.53-51.63c9.45-18,18.13-36.84,23.95-56.1l.07-.25a3.64,3.64,0,0,1,7.08,1.62Z" transform="translate(-452.44 -455)"/><path class="cls-5" d="M2087.26,3221.66a12.82,12.82,0,0,0,0-5.09l-.53-5-.87-10q-.72-10-1-20c-.41-13.34-.27-26.72.51-40.07,1.65-26.67,5.65-53.44,14.44-79,8.69-25.41,22.87-50.14,44.88-67.26a109.8,109.8,0,0,1,36.86-18.5,139.53,139.53,0,0,1,40.71-5.15c53.54,2.17,106.33,8.43,159.12,12.77,26.27,1.92,52.88,3.4,78.13-2a116.07,116.07,0,0,0,18.33-5.66,99.39,99.39,0,0,0,16.83-9.09c10.61-7.17,19.72-16.56,27.71-26.82l0,0a3.24,3.24,0,0,1,5.16,3.93c-8.07,10.83-17.46,21-28.72,29a106.65,106.65,0,0,1-18,10.19,123.51,123.51,0,0,1-19.55,6.51c-26.87,6-54.06,4.67-80.61,3s-53-4.7-79.47-7-53-4.4-79.15-5.49a130.65,130.65,0,0,0-38.1,4.45,101.12,101.12,0,0,0-34.08,16.73c-20.52,15.34-34.51,38.35-43.35,62.79s-13.41,50.76-15.5,77c-1,13.15-1.39,26.36-1.23,39.57q.12,9.91.68,19.81l.67,9.88.44,4.93a10.7,10.7,0,0,0,1.14,4.81,3,3,0,1,1-5.47.8Z" transform="translate(-452.44 -455)"/></g></svg>